<svg width="32" height="32" viewBox="0 0 32 32" fill="none" xmlns="http://www.w3.org/2000/svg">
<g clip-path="url(#clip0_549_4137)">
<path d="M30 12.2L27.2 6.4C26.4 5 25 4 23.4 4H8.6C7 4 5.6 5 4.8 6.4L2 12.2C0.8 12.4 0 13.4 0 14.4V21.4C0 22.6 0.8 23.6 2 23.8V27.8C2 29 3 30 4.2 30H6C7 30 8 29 8 27.8V24H24V27.8C24 29 25 30 26.2 30H28C29.2 30 30.2 29 30.2 27.8V23.8C31.4 23.6 32.2 22.6 32.2 21.4V14.4C32 13.4 31.2 12.4 30 12.2ZM8 16.8C8 17.4 7.4 18 6.8 18H3.2C2.6 18 2 17.4 2 16.8V15.2C2 14.6 2.6 14 3.2 14H6.8C7.4 14 8 14.6 8 15.2V16.8ZM20 22H12V20H20V22ZM4.2 12L6.6 7.2C7 6.4 7.8 6 8.6 6H23.4C24.2 6 25 6.4 25.4 7.2L27.8 12H4.2ZM30 16.8C30 17.4 29.4 18 28.8 18H25.2C24.6 18 24 17.4 24 16.8V15.2C24 14.6 24.6 14 25.2 14H28.8C29.4 14 30 14.6 30 15.2V16.8Z" fill="black"/>
</g>
<defs>
<clipPath id="clip0_549_4137">
<rect width="32" height="32" fill="white"/>
</clipPath>
</defs>
</svg>
