<?xml version="1.0" encoding="UTF-8"?>
<svg id="Capa_1" xmlns="http://www.w3.org/2000/svg" version="1.1" viewBox="0 0 1080 1080">
  <!-- Generator: Adobe Illustrator 29.0.0, SVG Export Plug-In . SVG Version: 2.1.0 Build 186)  -->
  <defs>
    <style>
      .st0 {
        fill: #fff;
      }
    </style>
  </defs>
  <path d="M1049.56,256.82c-17.32,114.79,31.48,685.55-20.82,740.45-10.13,10.63-68.51,35.1-84.22,33.79-149.22-12.39-27.12-326.74-102.06-410.01-40.28-7.84-23.35,32.19-24.55,57.64-3.33,70.95,5.37,148.31-39.69,208.56-178.93,67.61-165.94-105.11-159.09-233.27l-107.4,83.32-115.83-99.56c-91.01,77.1-154.28,289.54-305.52,189.24-171.19-113.53,42.89-271.16,148.3-330.81l-92.18-107.36c-11.06-12.37-2.3-20.96.87-31.96,13.68-47.46,260.32-249.91,307.01-307.48l32.38-.5,223.55,207.93h339.24ZM448.86,142.74l-143.68,138.9,289.3,289.3,156.91-156.91c-84.21-63.14-174.11-202.82-255.45-257.48-16.7-11.22-24.07-19.86-47.07-13.81ZM983.36,323.01l-215.12.17c151.11,131.61-14.11,146.53-67.1,238.88-27.08,47.19-30.59,223.82,9.43,273.79,39.99,7.92,23.64-32.15,24.63-57.56,2.75-70.14-12.53-211.66,80.83-232.02,41.22-8.99,117.69,48.27,117.69,82.88v322.69l49.65-24.82V323.01ZM247.21,339.65c-57,10.83,36.46,83.21,45.32,103.6,69.12,159.08-223.81,164.72-183.23,298.27,58.01,190.9,181.34-223.97,332.08-149.95,19.95,9.8,84.87,92.01,95.09,37.35,4.12-22.02-267.2-293.46-289.26-289.26Z"/>
  <path class="st0" d="M448.86,142.74c23-6.06,30.37,2.59,47.07,13.81,81.34,54.66,171.24,194.34,255.45,257.48l-156.91,156.91-289.3-289.3,143.68-138.9Z"/>
  <path class="st0" d="M983.36,323.01v604.02l-49.65,24.82v-322.69c0-34.61-76.47-91.87-117.69-82.88-93.36,20.36-78.09,161.88-80.83,232.02-.99,25.4,15.36,65.47-24.63,57.56-40.02-49.97-36.5-226.59-9.43-273.79,52.99-92.35,218.21-107.27,67.1-238.88l215.12-.17Z"/>
  <path class="st0" d="M247.21,339.65c22.07-4.19,293.38,267.25,289.26,289.26-10.22,54.67-75.14-27.55-95.09-37.35-150.74-74.02-274.07,340.86-332.08,149.95-40.58-133.55,252.35-139.2,183.23-298.27-8.86-20.39-102.32-92.76-45.32-103.6Z"/>
</svg>