<svg width="32" height="32" viewBox="0 0 32 32" fill="none" xmlns="http://www.w3.org/2000/svg">
<path fill-rule="evenodd" clip-rule="evenodd" d="M22.5882 6.58838H30.1176V10.3531H22.5882V6.58838ZM18.8235 12.2354H24.4706V15.9192H18.8235V12.2354ZM26.3529 12.2354H30.1176V15.9418H26.3529V12.2354ZM0 17.8825H3.76471V21.6472H0V17.8825ZM5.64706 17.8825H13.1765V21.6472H5.64706V17.8825ZM15.0588 17.8825H20.7059V21.6472H15.0588V17.8825ZM22.5882 17.8825H30.1176V21.6472H22.5882V17.8825ZM9.41176 12.2354H16.9412V15.9192H9.41176V12.2354ZM0 12.2354H7.52941V15.9192H0V12.2354ZM18.8235 23.5296H24.4706V27.2133H18.8235V23.5296ZM26.3529 23.5296H30.1176V27.2359H26.3529V23.5296ZM9.41176 23.5296H16.9412V27.2133H9.41176V23.5296ZM0 23.5296H7.52941V27.2133H0V23.5296ZM15.0588 6.58838H20.7059V10.3531H15.0588V6.58838ZM5.64706 6.58838H13.1765V10.3531H5.64706V6.58838ZM0 6.58838H3.76471V10.3531H0V6.58838Z" fill="black"/>
</svg>
