<svg width="32" height="32" viewBox="0 0 32 32" fill="none" xmlns="http://www.w3.org/2000/svg">
<path d="M3.99984 15.9998C9.99984 15.9998 15.9998 9.99984 15.9998 3.99984C15.9998 9.99984 21.9998 15.9998 27.9998 15.9998C21.9998 15.9998 15.9998 21.9998 15.9998 27.9998C15.9998 21.9998 9.99984 15.9998 3.99984 15.9998ZM2.6665 25.9998C3.77717 25.9998 5.99984 23.7772 5.99984 22.6665C5.99984 23.7772 8.2225 25.9998 9.33317 25.9998C8.2225 25.9998 5.99984 28.2225 5.99984 29.3332C5.99984 28.2225 3.77717 25.9998 2.6665 25.9998ZM21.3332 6.6665C22.6665 6.6665 25.3332 3.99984 25.3332 2.6665C25.3332 3.99984 27.9998 6.6665 29.3332 6.6665C27.9998 6.6665 25.3332 9.33317 25.3332 10.6665C25.3332 9.33317 22.6665 6.6665 21.3332 6.6665Z" stroke="white" stroke-width="2.5" stroke-linecap="round" stroke-linejoin="round"/>
</svg>
