<svg xmlns="http://www.w3.org/2000/svg" xmlns:xlink="http://www.w3.org/1999/xlink" id="Layer_1" x="0px" y="0px" width="480.711px" height="290.379px" viewBox="0 0 480.711 290.379" xml:space="preserve">
<path fill="#FFFFFF" d="M454.319,136.409c-10.662,0-19.331,8.673-19.331,19.335c0,10.66,8.669,19.335,19.331,19.335  c10.659,0,19.334-8.675,19.334-19.335C473.653,145.082,464.979,136.409,454.319,136.409"></path>
<polygon fill="#FFFFFF" points="254.355,125.641 424.21,125.641 424.21,138.346 246.88,138.346 "></polygon>
<polygon fill="#FFFFFF" points="192.7,125.641 22.847,125.641 22.847,138.346 200.189,138.346 "></polygon>
<rect x="21.195" y="257.744" fill="#F7DA0B" width="404.488" height="18.738"></rect>
<path fill="#211915" d="M22.016,275.663h402.846v-17.097H22.016V275.663z M425.683,277.3H21.195c-0.452,0-0.821-0.368-0.821-0.817  v-18.738c0-0.455,0.369-0.818,0.821-0.818h404.488c0.452,0,0.821,0.364,0.821,0.818v18.738  C426.503,276.932,426.135,277.3,425.683,277.3"></path>
<path fill="#007C63" d="M427.021,67.976c-0.168-0.292-0.476-0.47-0.813-0.47h-39.226c-0.333,0-0.643,0.176-0.812,0.462  l-28.187,48.067c-0.173,0.29-0.173,0.649-0.009,0.939c0.169,0.292,0.48,0.472,0.816,0.472h39.241c0.333,0,0.642-0.178,0.813-0.462  l28.172-48.067C427.188,68.625,427.188,68.269,427.021,67.976"></path>
<path fill="#BE0411" d="M383.845,53.48c-0.169-0.291-0.478-0.466-0.811-0.466H344.69c-0.333,0-0.646,0.178-0.812,0.471  l-35.644,61.99c-0.167,0.291-0.167,0.646,0.002,0.939c0.167,0.289,0.475,0.467,0.813,0.467h38.931c0.338,0,0.648-0.183,0.815-0.476  l35.055-61.992C384.014,54.124,384.012,53.77,383.845,53.48"></path>
<path fill="#004D95" d="M343.861,36.57c-0.167-0.293-0.478-0.471-0.815-0.471h-39.249c-0.333,0-0.643,0.175-0.809,0.463  l-46.45,79.472c-0.172,0.29-0.172,0.649-0.002,0.942c0.164,0.289,0.478,0.471,0.812,0.471h39.237c0.333,0,0.642-0.179,0.812-0.466  l46.462-79.471C344.026,37.219,344.026,36.862,343.861,36.57"></path>
<polygon fill="#F7DA0B" points="253.498,124.134 244.24,139.853 425.73,139.853 425.73,124.134 "></polygon>
<path fill="#211915" d="M245.677,139.033H424.91v-14.078H253.968L245.677,139.033z M425.73,140.673H244.243  c-0.295,0-0.566-0.158-0.716-0.413c-0.144-0.254-0.141-0.57,0.008-0.824l9.255-15.72c0.149-0.249,0.417-0.404,0.707-0.404H425.73  c0.451,0,0.817,0.368,0.817,0.822v15.719C426.549,140.307,426.183,140.673,425.73,140.673"></path>
<polygon fill="#F7DA0B" points="193.557,124.134 21.339,124.134 21.339,139.853 202.822,139.853 "></polygon>
<path fill="#211915" d="M22.16,139.033h179.228l-8.298-14.078H22.16V139.033z M202.822,140.673H21.339  c-0.455,0-0.819-0.366-0.819-0.82v-15.719c0-0.455,0.364-0.822,0.819-0.822h172.218c0.291,0,0.561,0.156,0.707,0.404l9.265,15.72  c0.149,0.254,0.152,0.567,0.005,0.824C203.39,140.515,203.117,140.673,202.822,140.673"></path>
<path fill="#009ADA" d="M91.76,116.682L63.911,68.14c-0.167-0.292-0.475-0.473-0.813-0.473H23.875c-0.333,0-0.642,0.181-0.811,0.47  c-0.169,0.291-0.169,0.649,0.002,0.939l28.147,48.545c0.169,0.289,0.477,0.465,0.811,0.465h38.925c0.333,0,0.644-0.178,0.808-0.467  C91.929,117.329,91.929,116.973,91.76,116.682"></path>
<path fill="#DA9400" d="M142.638,116.402l-35.356-62.49c-0.167-0.295-0.478-0.476-0.818-0.476H67.218  c-0.333,0-0.644,0.178-0.811,0.466c-0.169,0.29-0.169,0.647-0.005,0.936l35.669,62.49c0.164,0.292,0.477,0.474,0.813,0.474h38.938  c0.333,0,0.642-0.177,0.808-0.466C142.8,117.048,142.802,116.691,142.638,116.402"></path>
<path fill="#B9007C" d="M195.911,116.682L150.07,37.178c-0.167-0.292-0.475-0.47-0.811-0.47h-38.953  c-0.333,0-0.644,0.178-0.811,0.467c-0.169,0.291-0.169,0.649,0,0.94l45.849,79.503c0.169,0.292,0.478,0.471,0.813,0.471h38.938  c0.336,0,0.646-0.179,0.813-0.471C196.075,117.329,196.075,116.972,195.911,116.682"></path>
<polygon fill="#F7DA0B" points="156.139,18.735 225.434,140.515 298.033,18.735 "></polygon>
<path fill="#211915" d="M157.549,19.556l67.903,119.33l71.136-119.33H157.549z M225.434,141.336h-0.007  c-0.291-0.003-0.561-0.161-0.705-0.415L155.424,19.14c-0.146-0.254-0.144-0.564,0.005-0.817c0.144-0.251,0.417-0.409,0.707-0.409  h141.896c0.295,0,0.565,0.161,0.715,0.417c0.144,0.256,0.142,0.572-0.009,0.825L226.14,140.935  C225.992,141.183,225.725,141.336,225.434,141.336"></path>
<path fill="#211915" d="M22.629,147.983h19.892v63.303c0,4.046,0.303,7.078,0.881,9.149c0.583,2.07,1.667,3.737,3.229,5.047  c1.589,1.287,3.37,1.92,5.423,1.92c2.905,0,5.171-1.289,6.825-3.824c1.629-2.572,2.448-6.669,2.448-12.292v-63.303h19.902v60.121  c0,7.285-0.384,12.974-1.114,17.177c-0.667,4.243-1.821,7.942-3.413,11.185c-1.617,3.223-3.589,6.042-5.898,8.352  c-2.336,2.339-5.062,4.121-8.209,5.293c-3.142,1.197-6.593,1.824-10.248,1.824c-4.317,0-8.063-0.625-11.226-1.828  c-3.173-1.203-5.893-3.031-8.202-5.396c-2.322-2.344-4.262-5.102-5.792-8.3c-1.573-3.213-2.789-7.502-3.685-12.832  c-0.553-3.396-0.813-8.595-0.813-15.687V147.983z"></path>
<polygon fill="#211915" points="102.824,251.914 102.824,147.983 121.43,147.983 142.418,203.365 142.418,147.983 161.56,147.983   161.56,251.914 142.57,251.914 121.976,197.648 121.976,251.914 "></polygon>
<rect x="183.372" y="147.983" fill="#211915" width="19.968" height="103.931"></rect>
<path fill="#211915" d="M253.881,251.914c4.905,0,9.074-0.699,12.441-2.082c3.381-1.433,6.12-3.244,8.235-5.535  c2.132-2.29,4.064-5.358,5.849-9.28c1.803-3.914,3.328-8.933,4.567-15.058c1.258-6.079,1.881-13.021,1.881-20.808  c0-11.442-1.383-21.137-4.15-29.134c-2.731-7.953-6.509-13.628-11.273-17.019c-4.768-3.371-10.457-5.026-17.048-5.026h-29.26  v103.941H253.881z M245.741,173.815h5.475c3.862,0,6.74,0.683,8.613,1.955c1.332,0.932,2.478,2.474,3.401,4.575  c0.95,2.078,1.667,4.836,2.152,8.148c0.517,3.365,0.769,6.9,0.769,10.616c0,6.09-0.551,11.254-1.63,15.369  c-1.058,4.048-2.606,7.036-4.594,8.859c-1.981,1.825-4.951,2.685-8.853,2.685l-5.334,0.095V173.815L245.741,173.815z"></path>
<path fill="#211915" d="M313.777,251.914l3.033-15.686h19.912l3.017,15.686h19.91l-22.501-103.93h-20.316l-22.612,103.93H313.777z   M333.248,216.01h-12.744l6.282-35.844L333.248,216.01z"></path>
<path fill="#211915" d="M426.473,179.166h-18.937c-0.455-2.87-1.312-5.027-2.571-6.452c-1.238-1.438-3.031-2.157-5.327-2.157  c-2.28,0-4.023,0.737-5.259,2.243c-0.872,1.147-1.288,2.632-1.288,4.398c0,1.563,0.312,2.793,0.955,3.761  c0.952,1.364,3.213,2.713,6.808,4.127l7.758,3.094c7.19,2.801,12.22,6.762,15.117,11.936c2.881,5.203,4.324,11.148,4.324,17.975  c0,5.406-0.748,10.372-2.24,14.803c-1.511,4.5-3.347,7.986-5.523,10.618c-2.192,2.552-5.011,4.604-8.459,6.123  c-3.465,1.517-7.125,2.278-10.975,2.278c-4.179,0-8.113-0.895-11.816-2.646c-3.706-1.769-6.757-4.274-9.142-7.625  c-2.388-3.339-4.193-7.107-5.416-11.457c-0.856-3.127-1.469-6.918-1.829-11.449h19.208c0.47,3.164,1.417,5.521,2.896,7.209  c1.485,1.683,3.767,2.517,6.854,2.517c2.689,0,4.592-0.692,5.79-2.196c0.874-1.062,1.306-2.593,1.306-4.527  c0-2.006-0.399-3.563-1.21-4.83c-0.791-1.207-2.973-2.561-6.583-3.917l-6.938-2.827c-3.64-1.389-7.055-3.316-10.26-5.794  c-3.206-2.519-5.603-5.731-7.217-9.695c-1.599-3.918-2.435-8.709-2.435-14.307c0-5.529,0.739-10.474,2.183-14.736  c1.465-4.304,3.42-7.784,5.873-10.43c2.45-2.616,5.171-4.482,8.174-5.587c2.983-1.086,6.083-1.632,9.288-1.632  c3.794,0,7.283,0.654,10.44,1.865c3.149,1.257,5.684,2.874,7.569,4.939c1.897,1.987,3.377,4.31,4.567,6.883  c1.162,2.599,2.054,5.271,2.726,7.977C425.531,172.366,426.074,175.523,426.473,179.166"></path>
<path fill="#211915" d="M451.683,163.991v-7.01h0.459c0.528,0,0.89,0.057,1.119,0.197c0.264,0.091,0.493,0.338,0.689,0.691  c0.215,0.356,0.608,1.143,1.177,2.457l1.642,3.665h2.703l-1.366-3.303c-0.523-1.276-0.952-2.165-1.291-2.675  c-0.312-0.556-0.697-1.02-1.186-1.438c0.973-0.246,1.705-0.717,2.208-1.527c0.462-0.853,0.735-1.903,0.735-3.14  c0-1.015-0.164-1.891-0.495-2.646c-0.323-0.748-0.769-1.304-1.306-1.599c-0.531-0.321-1.399-0.489-2.588-0.489h-4.743v16.815h2.242  V163.991z M451.683,150.053h1.769c0.909,0,1.473,0,1.637,0.021c0.366,0.116,0.649,0.321,0.856,0.636  c0.191,0.383,0.306,0.852,0.306,1.415c0,0.484-0.081,0.928-0.238,1.249c-0.155,0.326-0.371,0.585-0.631,0.701  c-0.252,0.143-0.958,0.234-2.008,0.234h-1.689L451.683,150.053L451.683,150.053z"></path>
<path fill="#211915" d="M443.008,155.753c0-6.235,5.082-11.308,11.329-11.308c6.224,0,11.296,5.072,11.296,11.308  c0,6.234-5.072,11.291-11.296,11.291C448.09,167.044,443.008,161.987,443.008,155.753 M440.688,155.753  c0,7.5,6.109,13.603,13.649,13.603c7.512,0,13.64-6.104,13.64-13.603c0-7.514-6.128-13.634-13.64-13.634  C446.797,142.119,440.688,148.239,440.688,155.753"></path>
</svg>